PathFileType	4	(X/Y/Z)	Patient4_TMGait_0pt2_02_left_01.trc.trc
DataRate	CameraRate	NumFrames	NumMarkers	Units	OrigDataRate	OrigDataStartFrame	OrigNumFrames
43.076923076923	43.076923076923	6	33	mm	43.076923076923	106	       141
Frame#	Time	R.Midfoot.Superior			Sacral			L.Shoulder			Chest			R.Shoulder			Neck			R.ASIS			L.ASIS			R.Thigh.Superior			R.Thigh.Lateral			R.Thigh.Inferior			R.Patella			L.Thigh.Superior			L.Thigh.Lateral			L.Thigh.Inferior			L.Patella			L.Shank.Superior			L.Shank.Lateral			L.Shank.Inferior			R.Shank.Superior			R.Shank.Lateral			R.Shank.Inferior			R.Heel			R.Midfoot.Lateral			R.Toe			L.Heel			L.Midfoot.Lateral			L.Midfoot.Superior			L.Toe			L.Elbow			L.Wrist			R.Elbow			R.Wrist			
		X1	Y1	Z1	X2	Y2	Z2	X3	Y3	Z3	X4	Y4	Z4	X5	Y5	Z5	X6	Y6	Z6	X7	Y7	Z7	X8	Y8	Z8	X9	Y9	Z9	X10	Y10	Z10	X11	Y11	Z11	X12	Y12	Z12	X13	Y13	Z13	X14	Y14	Z14	X15	Y15	Z15	X16	Y16	Z16	X17	Y17	Z17	X18	Y18	Z18	X19	Y19	Z19	X20	Y20	Z20	X21	Y21	Z21	X22	Y22	Z22	X23	Y23	Z23	X24	Y24	Z24	X25	Y25	Z25	X26	Y26	Z26	X27	Y27	Z27	X28	Y28	Z28	X29	Y29	Z29	X30	Y30	Z30	X31	Y31	Z31	X32	Y32	Z32	X33	Y33	Z33	

106	4.287500000000	987.356880652932	95.095329997393	563.659809497349	807.038962297732	993.217778902589	553.316873343897	1008.163906351412	1403.876530553211	352.177507871676	1106.804619137383	1338.768740386013	516.770960223535	1026.287020841269	1421.445663055997	688.081255411580	990.102069882778	1474.829855916435	507.719307833830	1040.558329924507	922.886426165223	662.799295255809	1015.930020523830	939.825116737713	390.009722426080	1089.939064224469	727.561504914004	611.986683452810	1018.723536839764	608.056060235254	663.510754395918	1093.720953595663	567.069613716920	573.573017532484	1098.296770815994	469.549599474842	572.602887161034	1086.503290695099	747.768755065333	413.099400262836	1029.299131389280	626.249510460131	331.207086552371	1126.380246127258	554.599646573013	392.168646609559	1131.275594798149	466.556454885577	379.217596556525	1062.812238060477	405.441308728110	364.151847321505	921.051490902807	367.366265299152	311.797747517807	910.636515349873	233.145785462174	353.918895190401	1049.161297666492	383.891101584418	574.094746210474	963.423774787916	289.965992816851	635.713881002425	978.133176113418	195.832341109097	562.261995141681	814.809536820011	46.748223549449	532.242056050031	899.290250069348	38.386349369315	604.438624860678	1107.186039942429	39.659339290446	591.131066080374	720.537172127796	153.655414259855	385.479752946099	779.922569127284	124.923477804983	299.032461358855	884.597267127912	140.660183696630	320.403329405476	972.441290161982	42.178961420014	275.584050334298	966.184356169669	1043.899150035674	261.869956617664	1000.952520204267	786.239498102647	265.043575495983	1021.916374248859	1076.404917717622	827.613812868986	1173.405624428346	864.978040846021	831.964857945141	
107	4.310714285714	982.587211557246	94.970771569001	563.701019707792	805.411634880522	994.216884676463	556.555772662569	1003.232170303513	1404.468389958040	352.441495993284	1105.350656978317	1339.047528333091	514.857837426922	1028.918097114212	1422.181968454159	687.842474632691	988.867878845959	1475.388151452088	508.149749262452	1039.820082981806	922.948908035007	662.776542373409	1011.768110075231	940.842036772636	390.578325117715	1087.301601880458	727.014814705431	612.093270707804	1015.627848393894	608.120449388771	664.123632903104	1089.583159681951	566.716999646497	573.570265154987	1093.520182604113	469.466225290379	572.490318892608	1084.817000170059	751.002089148271	414.318355483058	1029.713963767371	628.768359918250	332.025387259052	1127.535747846795	558.502804250692	393.218109903260	1134.126220497882	470.760397165976	379.862035921606	1067.229817902423	408.458518286554	364.223738735704	926.477960534608	366.859168580835	312.221005286971	920.240837009611	232.124971271748	353.361294540351	1044.487016792105	383.894617335445	574.215706142804	959.061870734090	289.858581422175	636.099916207272	973.448053783905	195.851149294806	562.448985801271	810.073963585734	46.712511556927	532.521776286950	894.590263368259	38.308239633355	604.661431293218	1102.487209274417	39.662013064624	591.127486216616	733.120736792866	146.966384871405	385.503489328271	792.604784321761	120.970393090998	298.256392645763	896.801311841015	139.243466202159	319.187408667332	986.946151135179	43.427706571216	272.530529457595	941.838748690026	1047.830768292732	262.415595633732	955.881548341343	787.603091248638	268.078536521720	1042.290277431693	1079.045010121820	830.306957573059	1212.660828144208	882.963045260121	829.372495073171	
108	4.333928571429	977.784470353066	94.862083325744	563.786013329622	803.915379214224	995.772323520376	559.504080633547	998.185301276603	1405.701305784287	352.610170128915	1103.820737443126	1339.865457596652	512.660664475537	1031.602972232005	1423.463819517179	687.226364386773	987.546294200167	1476.431245295591	508.353621399388	1039.058425203826	923.371102536949	662.366841231487	1007.676015982722	942.415201663143	390.793493349625	1084.139428877719	726.635811782957	611.941540481342	1011.734765332053	608.556065832686	664.650563807395	1084.455276747520	566.525035103392	573.495164427155	1087.573613741621	469.715452749631	572.368392101427	1082.561558081002	754.388912289276	415.099642711077	1029.091340767013	631.643082628993	332.398271589028	1127.369401415524	562.487374960410	393.758184896361	1135.665899700850	475.358207464237	380.098939556178	1070.891227543117	411.794132152601	363.840055780377	931.936028349208	365.500155482897	311.682225121740	930.882919572523	230.375482775230	351.986433811196	1038.886803662612	384.212142166964	574.362354726446	954.020664690458	289.884697538186	636.464356425184	968.380722756060	196.014364011203	562.657217834451	805.301076218972	46.597228261003	532.807914452323	889.861194455100	38.196727183726	604.900730813253	1097.764833897977	39.707872636723	591.114813742189	747.604366353886	138.232938480864	384.102799538921	807.654921999178	115.161928477791	296.436405997841	911.019471708189	136.811816353123	317.266557667415	1004.234673027439	44.582333148160	269.556113057638	917.778783860612	1053.577858827530	262.666673708911	913.291687247420	792.766237730144	271.303339288628	1062.834098443459	1083.251865789479	832.016443225614	1250.827821915731	904.695790097774	824.826093239028	
109	4.357142857143	972.956933169957	94.771056970086	563.913778633572	802.536650577922	997.805617368500	562.181380713433	993.053009402123	1407.489631558421	352.705624388390	1102.233831828066	1341.127244960752	510.194455812984	1034.364012633350	1425.185084845826	686.252003150575	986.168120031087	1477.874351086343	508.367595776031	1038.292565996847	924.075373446990	661.556157090871	1003.639986850709	944.478810300394	390.627395126197	1080.497086179126	726.388157210448	611.525868958208	1007.124198065821	609.311665064937	665.090896884429	1078.430745519001	566.467546536804	573.351377634502	1080.568918300309	470.261082213632	572.244759776107	1079.782935638489	757.851657493471	415.421372891910	1027.530178219884	634.768818520501	332.305832716421	1126.007126148586	566.451961855333	393.780031359854	1136.012175975996	480.237419700027	379.921073357920	1073.856193176828	415.380517938240	363.028920204392	937.521599284470	363.431164745181	310.190797212306	942.455232915113	228.140267263553	349.873199631339	1032.456155557145	384.806370102669	574.541385384767	948.361087051574	290.029198636460	636.815435267814	962.967397337952	196.303414800346	562.885631840981	800.493840363111	46.407364923018	533.091351816708	885.106287707177	38.054992889993	605.149660362260	1093.022586640614	39.789352788978	591.092934892548	763.822604841808	128.052430553092	381.341786326488	824.881459533716	107.989244541079	293.662520455212	927.048551056716	133.677065363209	314.753552306399	1023.928698945877	45.744078589817	266.830538590460	894.429818405717	1060.860498472072	262.852145985027	873.672787890371	800.924441517896	274.756135942712	1083.354013914858	1088.879185379239	832.702015946496	1287.245020219089	929.827483637301	818.450072022599	
110	4.380357142857	968.117250224908	94.704009006007	564.088359108823	801.257708463546	1000.211727444157	564.587392818785	987.879120590498	1409.722809494599	352.739044880506	1100.610015648032	1342.719233953542	507.478856470489	1037.202399977684	1427.215268273580	684.940517040094	984.767783985509	1479.612675869193	508.225769802797	1037.537288152289	924.972813424405	660.340519342588	999.652644033548	946.930943617859	390.065848779018	1076.438539639639	726.229522850840	610.846630869786	1001.907034040376	610.322988688392	665.436270830661	1071.643801007221	566.512005459687	573.138349893465	1072.666121714777	471.053565077527	572.121181985950	1076.535468474953	761.288465164454	415.259780172168	1025.127863542569	638.017239593550	331.734198777368	1123.589711306118	570.280913195963	393.270700284500	1135.290635894746	485.265424243881	379.323512296741	1076.171792389742	419.136936068864	361.832911542702	943.281970464432	360.815958225044	307.825407304208	954.782256359733	225.680277792277	347.163680362629	1025.332826657331	385.628032015927	574.752127724861	942.173080660795	290.274680018121	637.158364870269	957.260652193918	196.695922491104	563.129862120854	795.657140420370	46.154512815641	533.364135037178	880.330038986074	37.889344024998	605.401245569552	1088.264250589821	39.898397650925	591.062094234694	781.524212661431	117.061587670082	377.418920140756	843.979213180361	99.992828075626	290.128233912878	944.585036397639	130.186337898877	311.823788746342	1045.528385391607	47.046925346294	264.529134017298	872.187138863584	1069.317933043625	263.181862996723	837.368043171400	811.220252796454	278.468195085492	1103.634565606312	1095.713154345244	832.328207652122	1321.305890139332	957.843718702524	810.427006399221	
111	4.403571428571	963.281213387908	94.670594110123	564.317032343137	800.061968910825	1002.867845301724	566.702325794080	982.722884516972	1412.273991635445	352.708069055101	1098.971749870665	1344.519457724401	504.537872031952	1040.096268073221	1429.411942453712	683.313353773180	983.380461431707	1481.530659817008	507.953471057551	1036.804765857873	925.971522996071	658.729793277436	995.719790636956	949.640719205701	389.109461651325	1072.049057848230	726.117216854762	609.909057516954	996.224508427707	611.517678677979	665.670653812978	1064.268414106430	566.622533157021	572.849415197236	1064.071442418505	472.031930288292	571.991719246400	1072.881131804541	764.577183683732	414.586645973287	1021.967430291333	641.240189828934	330.679752081712	1120.259449471722	573.845786015239	392.214137407361	1133.618878296151	490.290903338319	378.306051814647	1077.863163425622	422.967173781697	360.305956897274	949.200695776499	357.813890606201	304.729291645459	967.627552326724	223.235917202302	344.046782926351	1017.691790071208	386.618518436770	574.984256521401	935.573601797538	290.602878039599	637.491718489054	951.328838005791	197.166593951533	563.381546268156	790.798184740241	45.856443522128	533.619452240724	875.538012950621	37.708907724084	605.648298490966	1083.493778112114	40.026221085647	591.023358082213	800.381829569017	105.864507338782	372.643271392870	864.542915983296	91.693243128956	286.107790422852	963.242816855367	126.670855648918	308.694252586321	1068.448138318974	48.622808221323	262.813763774246	851.391822766728	1078.538238845326	263.817131234885	804.600580811827	822.806485984487	282.459415364032	1123.447092076133	1103.488172518674	830.867583518959	1352.490980349455	988.093657323634	800.982497628602	
